HIERARCHY
ROOT mug1
{
	OFFSET 0.000000 0.000000 0.000000
	CHANNELS 6 Xposition Yposition Zposition Yrotation Xrotation Zrotation
	End Site
	{
		OFFSET 0.000000 0.000000 0.000000
	}
}
MOTION
Frames: 191
Frame Time: 0.008333334
2.127593 3.664279 2.441382 42.550030 -1.984161 -6.362274 
2.130199 3.657957 2.439795 42.392900 -1.906677 -6.403290 
2.132533 3.652442 2.438648 42.251680 -1.951324 -6.539490 
2.135274 3.646278 2.437482 42.176780 -2.082275 -6.505493 
2.137669 3.639968 2.436891 42.046970 -2.017822 -6.575165 
2.140256 3.634033 2.436112 41.958990 -2.177094 -6.604858 
2.142889 3.627514 2.436479 41.918880 -2.175537 -6.642059 
2.146121 3.621658 2.436647 41.849330 -2.214081 -6.718323 
2.148987 3.615914 2.437977 41.800820 -2.232941 -6.881653 
2.152095 3.609456 2.438064 41.695550 -2.313293 -6.945740 
2.155280 3.602881 2.438809 41.667570 -2.185577 -7.042816 
2.159215 3.596762 2.440144 41.628230 -2.331238 -7.172607 
2.163333 3.591027 2.441561 41.518220 -2.355469 -7.349335 
2.167579 3.584666 2.442493 41.379970 -2.290710 -7.498993 
2.172493 3.578730 2.443796 41.224320 -2.377258 -7.639984 
2.177038 3.573219 2.444935 41.021530 -2.331268 -7.795990 
2.181216 3.567901 2.445432 40.780090 -2.328766 -7.890533 
2.185042 3.562457 2.447809 40.617120 -2.416931 -7.846375 
2.187705 3.556661 2.448674 40.470840 -2.367157 -7.649017 
2.189052 3.551325 2.450513 40.324410 -2.504578 -7.651825 
2.189419 3.545339 2.451898 40.193130 -2.708557 -7.531189 
2.189840 3.538813 2.454534 40.205900 -2.839355 -7.295868 
2.189455 3.532341 2.456539 40.081800 -3.003082 -7.226471 
2.189132 3.525122 2.458946 40.082490 -3.251343 -7.052307 
2.189151 3.517899 2.460438 40.030950 -3.275391 -7.015045 
2.188305 3.510734 2.461811 39.997170 -3.478302 -7.100616 
2.187687 3.502311 2.463214 39.920280 -3.566772 -7.072968 
2.187167 3.494224 2.464488 39.950630 -3.628296 -7.116302 
2.185614 3.490518 2.467429 39.939650 -3.574768 -7.001404 
2.183931 3.493423 2.471533 39.977430 -3.195984 -6.757141 
2.183022 3.492630 2.473791 39.942820 -3.118713 -6.694580 
2.182037 3.490712 2.475166 39.862220 -3.049652 -6.635620 
2.181432 3.490531 2.477103 39.865640 -2.808807 -6.465942 
2.180958 3.489492 2.478446 39.869670 -2.395844 -6.179474 
2.179734 3.488767 2.479893 39.840710 -2.181580 -5.991455 
2.177578 3.488842 2.481413 39.785090 -2.117340 -5.854828 
2.175159 3.488586 2.482111 39.765090 -2.056976 -5.602936 
2.172517 3.488090 2.482571 39.758300 -1.970734 -5.326935 
2.170143 3.487445 2.483057 39.812300 -1.980865 -5.074341 
2.167503 3.486877 2.483513 39.876960 -2.085480 -4.868774 
2.164814 3.487047 2.483454 39.876370 -2.198761 -4.750183 
2.161165 3.486901 2.483738 39.795600 -2.269531 -4.636017 
2.157351 3.486806 2.483753 39.789540 -2.458984 -4.452332 
2.151988 3.487412 2.483508 39.593910 -2.695465 -4.309540 
2.147252 3.487282 2.483652 39.548770 -2.746552 -4.082458 
2.141944 3.487138 2.483931 39.434570 -2.934845 -3.694153 
2.136838 3.487090 2.484470 39.256160 -3.012604 -3.315735 
2.131395 3.487076 2.484569 39.049880 -3.033905 -2.966888 
2.126158 3.487100 2.484130 38.919130 -3.002899 -2.509796 
2.120217 3.487268 2.484511 38.792710 -3.016083 -2.112488 
2.115844 3.486411 2.484543 38.734230 -2.688965 -1.621735 
2.111310 3.485936 2.484866 38.656940 -2.353668 -1.167267 
2.107341 3.485567 2.484699 38.603570 -2.029205 -0.815796 
2.104131 3.485063 2.484877 38.509310 -1.681458 -0.474701 
2.101743 3.484762 2.485286 38.464130 -1.127441 -0.245178 
2.100586 3.484751 2.486258 38.357580 -0.661194 -0.155457 
2.100736 3.483942 2.487088 38.176490 -0.182343 -0.102570 
2.103304 3.481925 2.488336 38.112750 0.505190 -0.190704 
2.106809 3.480211 2.489641 37.961900 1.047308 -0.486298 
2.111573 3.478142 2.490797 37.776770 1.519314 -0.925751 
2.117747 3.477428 2.491962 37.699330 1.826850 -1.431976 
2.119982 3.478623 2.493627 37.579780 1.842345 -1.423523 
2.121160 3.479328 2.494890 37.574040 2.073822 -1.291809 
2.120738 3.479526 2.495859 37.576120 2.103266 -1.157288 
2.118485 3.480022 2.496358 37.459290 1.859614 -1.077423 
2.116335 3.479820 2.496560 37.482560 1.919116 -0.877228 
2.115491 3.479827 2.497088 37.502740 1.951492 -0.787598 
2.115262 3.479814 2.498102 37.493760 1.984225 -0.769714 
2.115921 3.479924 2.498124 37.488440 2.025537 -0.748047 
2.116645 3.480230 2.498755 37.429660 2.072260 -0.825806 
2.117345 3.480298 2.498857 37.384040 2.076806 -0.837280 
2.117388 3.480356 2.498561 37.322300 1.978376 -0.870056 
2.117857 3.479987 2.498127 37.354980 2.021992 -0.872955 
2.118047 3.479829 2.496906 37.280650 1.864692 -0.977356 
2.118592 3.479517 2.495518 37.289270 1.795804 -1.073853 
2.119250 3.478973 2.493441 37.309840 1.714957 -1.173981 
2.119917 3.477708 2.491598 37.212140 1.695608 -1.297577 
2.121053 3.476737 2.489421 37.187440 1.712639 -1.360168 
2.121210 3.477087 2.489919 37.194360 1.613127 -1.358215 
2.121908 3.477382 2.489928 37.212450 1.587736 -1.416412 
2.122597 3.477423 2.490690 37.295990 1.637631 -1.421234 
2.122606 3.477582 2.490733 37.267100 1.537609 -1.434570 
2.122842 3.477388 2.491094 37.328580 1.626722 -1.407410 
2.122693 3.477443 2.491361 37.367650 1.648679 -1.402679 
2.122646 3.477469 2.491605 37.386150 1.610162 -1.397125 
2.122501 3.477697 2.491906 37.387690 1.688601 -1.403229 
2.122589 3.477579 2.492166 37.376400 1.654776 -1.404053 
2.122588 3.477643 2.492260 37.363900 1.671937 -1.389740 
2.122560 3.477450 2.492730 37.345650 1.684861 -1.411072 
2.122368 3.477191 2.492925 37.289370 1.526796 -1.416901 
2.122557 3.477389 2.493092 37.183730 1.528584 -1.417267 
2.123694 3.476842 2.493522 37.181990 1.663411 -1.371735 
2.124215 3.476983 2.494390 37.080440 1.577375 -1.392700 
2.125083 3.476789 2.496023 37.000100 1.615349 -1.397552 
2.127212 3.476765 2.498073 36.939540 1.675410 -1.337402 
2.128836 3.476893 2.499944 36.916290 1.634336 -1.342499 
2.130833 3.477176 2.502084 36.879060 1.635899 -1.370636 
2.132713 3.476408 2.504583 36.984930 1.852711 -1.267334 
2.133468 3.477004 2.506757 37.038860 1.706797 -1.367218 
2.134606 3.476877 2.508349 37.173450 1.687505 -1.355164 
2.134688 3.477061 2.509252 37.242870 1.641829 -1.374207 
2.135090 3.477042 2.509979 37.366650 1.674728 -1.364410 
2.134529 3.477272 2.510553 37.479540 1.565685 -1.392487 
2.134189 3.477549 2.511311 37.707450 1.473358 -1.406769 
2.134672 3.477693 2.512104 37.938220 1.493787 -1.429474 
2.134861 3.478028 2.512899 38.196300 1.513718 -1.462097 
2.135210 3.477845 2.513705 38.452310 1.576298 -1.428162 
2.135997 3.477012 2.514781 38.789210 1.737506 -1.349487 
2.136217 3.477059 2.515429 39.004790 1.742978 -1.346069 
2.136573 3.477131 2.516002 39.159280 1.765072 -1.353729 
2.136408 3.477426 2.517042 39.298470 1.706694 -1.401184 
2.136570 3.477395 2.517442 39.462860 1.722688 -1.381134 
2.136604 3.477642 2.518130 39.550270 1.725978 -1.440674 
2.137911 3.476748 2.518983 39.808170 1.996973 -1.352081 
2.137499 3.477338 2.519555 39.871720 1.922195 -1.432587 
2.137898 3.477186 2.519987 40.048840 1.941484 -1.398438 
2.137852 3.477158 2.520859 40.175640 1.945337 -1.394928 
2.138321 3.477140 2.521391 40.369680 1.916742 -1.366486 
2.138568 3.477280 2.522218 40.534130 1.935440 -1.382690 
2.138989 3.477358 2.523207 40.679760 1.990664 -1.405090 
2.139691 3.477492 2.524588 40.823020 2.021726 -1.446838 
2.139880 3.477272 2.526259 40.940380 1.971099 -1.390442 
2.139826 3.477243 2.528134 41.060980 2.014052 -1.400726 
2.140222 3.477331 2.529876 41.178010 1.957489 -1.323883 
2.139667 3.477913 2.532382 41.139980 1.894899 -1.403381 
2.140892 3.477991 2.533945 41.212350 1.963982 -1.353851 
2.141462 3.477745 2.535562 41.304610 1.878716 -1.321503 
2.141971 3.478109 2.537401 41.347130 1.920638 -1.318939 
2.142841 3.478137 2.540070 41.348030 1.911247 -1.335052 
2.143746 3.478380 2.542089 41.362420 1.944534 -1.353699 
2.144257 3.478425 2.543500 41.333510 1.864632 -1.361206 
2.144987 3.478193 2.545537 41.225170 1.837708 -1.364716 
2.146512 3.478186 2.546101 41.118700 1.895745 -1.377411 
2.146975 3.478442 2.546856 40.934590 1.860993 -1.396149 
2.147351 3.478085 2.546993 40.827420 1.774324 -1.342438 
2.148257 3.477863 2.547897 40.685050 1.725752 -1.275543 
2.149277 3.478176 2.548252 40.382420 1.794514 -1.339966 
2.150225 3.478053 2.548933 40.098480 1.796131 -1.313568 
2.151780 3.478083 2.549943 39.691700 1.800696 -1.313293 
2.152992 3.477931 2.551017 39.224120 1.740943 -1.323517 
2.155008 3.477873 2.551928 38.663810 1.709562 -1.292145 
2.157069 3.477795 2.553345 38.003110 1.704301 -1.308990 
2.158978 3.477830 2.554432 37.266970 1.683747 -1.338165 
2.161323 3.477403 2.555722 36.436810 1.671294 -1.315094 
2.162987 3.477237 2.556906 35.637280 1.606414 -1.274353 
2.164330 3.477421 2.557842 34.806680 1.653161 -1.272247 
2.165993 3.477245 2.558457 33.989330 1.570938 -1.212524 
2.166377 3.478408 2.558991 33.093070 1.316917 -1.337433 
2.167580 3.477747 2.559999 32.363480 1.442163 -1.270966 
2.168144 3.477906 2.560110 31.580010 1.386737 -1.286743 
2.168528 3.477919 2.560807 30.828440 1.379674 -1.257904 
2.168552 3.477750 2.561732 30.040630 1.457135 -1.289795 
2.168624 3.477989 2.561943 29.092530 1.227602 -1.215637 
2.168473 3.478050 2.563462 28.216980 1.156523 -1.248444 
2.168752 3.477657 2.563976 27.244280 1.101952 -1.184509 
2.168113 3.478311 2.564872 26.204000 1.036609 -1.190582 
2.168388 3.477952 2.566655 25.244260 1.004955 -1.110382 
2.168309 3.477664 2.567847 24.198400 0.983212 -1.057922 
2.167838 3.478204 2.569413 23.101720 0.929014 -1.048828 
2.168277 3.478380 2.571636 22.037770 0.875790 -1.073517 
2.167970 3.478836 2.572920 20.836090 0.754759 -1.076111 
2.168626 3.478707 2.575673 19.765350 0.781600 -1.020111 
2.168227 3.479550 2.578244 18.563830 0.519167 -0.960053 
2.168504 3.479204 2.579949 17.376380 0.618108 -1.006561 
2.168336 3.479077 2.582202 16.140200 0.648203 -0.927734 
2.168132 3.479072 2.584300 14.917960 0.499425 -0.854218 
2.168279 3.479557 2.587026 13.746050 0.448420 -0.774567 
2.168023 3.479942 2.588730 12.554600 0.378932 -0.698700 
2.167744 3.480168 2.590597 11.313750 0.439999 -0.729126 
2.166497 3.479516 2.592345 10.084630 0.322345 -0.725830 
2.166815 3.479920 2.594052 8.830082 0.302226 -0.742828 
2.165963 3.480014 2.595652 7.644383 0.203180 -0.652679 
2.166590 3.479584 2.596768 6.586634 0.223758 -0.513947 
2.165303 3.480201 2.599167 5.438576 0.000011 -0.628113 
2.165066 3.479939 2.599894 4.422472 0.022640 -0.490143 
2.165200 3.480139 2.601075 3.505230 -0.011627 -0.472015 
2.164027 3.480360 2.602688 2.442735 -0.013214 -0.533814 
2.163815 3.480171 2.603859 1.411557 -0.018372 -0.406555 
2.162910 3.480222 2.604938 0.315549 -0.029266 -0.365875 
2.162086 3.480320 2.607005 -0.822693 -0.095062 -0.341339 
2.161409 3.480358 2.608907 -1.924896 -0.134735 -0.252625 
2.160315 3.480638 2.610667 -3.063202 -0.212219 -0.204285 
2.159365 3.480787 2.613349 -4.196594 -0.237244 -0.139282 
2.158540 3.481170 2.615825 -5.279388 -0.241791 -0.008179 
2.157365 3.481242 2.619530 -6.432190 -0.232513 -0.034729 
2.156058 3.481351 2.623312 -7.665009 -0.304535 0.065660 
2.155758 3.481463 2.627487 -8.797211 -0.266571 0.080572 
2.155251 3.482110 2.631640 -10.079830 -0.353912 0.162964 
2.155110 3.482335 2.636565 -11.312870 -0.329041 0.196006 
2.155192 3.482185 2.640578 -12.571440 -0.361328 0.272029 
2.155484 3.482820 2.645504 -13.816960 -0.336426 0.362557 
